/* XPM */
static const char *coin[] = {
/* columns rows colors chars-per-pixel */
"48 48 251 2 ",
"   c #01001C",
".  c #0F051F",
"X  c #2B020E",
"o  c #0B032A",
"O  c #070325",
"+  c #16072A",
"@  c #0C0333",
"#  c #0B0834",
"$  c #130535",
"%  c #160734",
"&  c #1B1539",
"*  c #290626",
"=  c #370A29",
"-  c #3C1427",
";  c #350D33",
":  c #251B3B",
">  c #3B1534",
",  c #2A112D",
"<  c #322737",
"1  c #570607",
"2  c #470114",
"3  c #570919",
"4  c #4D1114",
"5  c #680508",
"6  c #76190C",
"7  c #66171C",
"8  c #6F150C",
"9  c #682717",
"0  c #773A1A",
"q  c #773010",
"w  c #451529",
"e  c #51122E",
"r  c #731925",
"t  c #62192B",
"y  c #55263A",
"u  c #52292F",
"i  c #632629",
"p  c #792527",
"a  c #6F2C33",
"s  c #52231F",
"d  c #6F462C",
"f  c #6A5631",
"g  c #1D1C43",
"h  c #271B43",
"j  c #381E48",
"k  c #25244B",
"l  c #2A294D",
"z  c #272347",
"x  c #282955",
"c  c #342D55",
"v  c #2D345B",
"b  c #36365B",
"n  c #352B4A",
"m  c #3B3C62",
"M  c #353C66",
"N  c #4F3B4F",
"B  c #6E3847",
"V  c #422A52",
"C  c #3D4265",
"Z  c #3C456A",
"A  c #3B466A",
"S  c #3E4872",
"D  c #594C5A",
"F  c #764E48",
"G  c #414466",
"H  c #41466A",
"J  c #434A6D",
"K  c #4B4E6E",
"L  c #464766",
"P  c #4D506E",
"I  c #464E71",
"U  c #4A4F72",
"Y  c #444F7A",
"T  c #475072",
"R  c #4A5274",
"E  c #4C5579",
"W  c #4E597D",
"Q  c #45517A",
"!  c #50577A",
"~  c #535B7C",
"^  c #51536E",
"/  c #6A667B",
"(  c #695362",
")  c #93180A",
"_  c #983814",
"`  c #8C310F",
"'  c #A73804",
"]  c #A73617",
"[  c #B1310D",
"{  c #8C182E",
"}  c #8E2E2B",
"|  c #A52E27",
" . c #8F4B13",
".. c #A8470C",
"X. c #B64909",
"o. c #AA530C",
"O. c #B95508",
"+. c #AD5915",
"@. c #B75A14",
"#. c #AC4813",
"$. c #8F6714",
"%. c #B66207",
"&. c #B36D17",
"*. c #8D522B",
"=. c #A54729",
"-. c #A9582A",
";. c #A36932",
":. c #C55813",
">. c #C4570E",
",. c #C96406",
"<. c #D56C04",
"1. c #D87507",
"2. c #CC7710",
"3. c #E3770C",
"4. c #C8612C",
"5. c #845254",
"6. c #9A724E",
"7. c #90716E",
"8. c #A57C74",
"9. c #A17E47",
"0. c #B78334",
"q. c #D9880A",
"w. c #DA940E",
"e. c #CB8A17",
"r. c #D78614",
"t. c #DD9816",
"y. c #CB9513",
"u. c #E58909",
"i. c #E99606",
"p. c #F79902",
"a. c #EE9310",
"s. c #D5B014",
"d. c #E9A707",
"f. c #F3AD01",
"g. c #F3A605",
"h. c #E9B505",
"j. c #F3B503",
"k. c #F4BB02",
"l. c #F7BA09",
"z. c #ECB115",
"x. c #CC902D",
"c. c #CFB029",
"v. c #E9B32E",
"b. c #EDC806",
"n. c #F3CC01",
"m. c #F6C707",
"M. c #F7D605",
"N. c #F7C915",
"B. c #F7D716",
"V. c #ECD312",
"C. c #FAE807",
"Z. c #F9E51C",
"A. c #FBF30E",
"S. c #EAC526",
"D. c #F5D425",
"F. c #F1CD2D",
"G. c #F9E72B",
"H. c #FEFA29",
"J. c #F5EB3A",
"K. c #F3E437",
"L. c #FBF536",
"P. c #DEC72C",
"I. c #AE8B6D",
"U. c #B48B7A",
"Y. c #A59754",
"T. c #D0A64A",
"R. c #C49162",
"E. c #D0B176",
"W. c #DDB15E",
"Q. c #F0D64D",
"!. c #FBF748",
"~. c #F4EB5B",
"^. c #F9F758",
"/. c #F3E84D",
"(. c #F9E769",
"). c #F9F867",
"_. c #FBFB7C",
"`. c #F8FA76",
"'. c #F8E87A",
"]. c #E2CD68",
"[. c #4A5884",
"{. c #535D82",
"}. c #565E8A",
"|. c #424F82",
" X c #576386",
".X c #6E7893",
"XX c #6E748B",
"oX c #80788E",
"OX c #7B839A",
"+X c #8B8999",
"@X c #A68987",
"#X c #B29186",
"$X c #B69897",
"%X c #A19E9F",
"&X c #BBA799",
"*X c #ADA49E",
"=X c #9899AA",
"-X c #928FA2",
";X c #9DA3B3",
":X c #A3A4B4",
">X c #A9ADB8",
",X c #BAABB3",
"<X c #B49DA1",
"1X c #D0AE95",
"2X c #C6ADA8",
"3X c #DBB8A6",
"4X c #C5B3B6",
"5X c #D1B7B1",
"6X c #D19F93",
"7X c #EDD491",
"8X c #F9E988",
"9X c #FBF788",
"0X c #F9E79B",
"qX c #FCFC99",
"wX c #D0C7B4",
"eX c #E4D5B8",
"rX c #EACCAE",
"tX c #FCFBA6",
"yX c #F7EDBA",
"uX c #FCFAB8",
"iX c #F3E6AB",
"pX c #D7CE83",
"aX c #B3B8C2",
"sX c #AEB2C0",
"dX c #D2BAC4",
"fX c #BDC3CD",
"gX c #D7D9DC",
"hX c #CDCCCE",
"jX c #F0DBC4",
"kX c #FEFECA",
"lX c #F9F7C5",
"zX c #EEE5D7",
"xX c #FEFEDC",
"cX c #FAF9D5",
"vX c #F5E1C8",
"bX c #DADDE1",
"nX c #DEE2E5",
"mX c #E7E7EA",
"MX c #FEFEE4",
"NX c #FDFDEC",
"BX c #F6F3E8",
"VX c #EBEDF3",
"CX c #F4F2F2",
"ZX c #FDFDF3",
"AX c #F3F5FC",
"SX c #F5FAFC",
"DX c #FEFEFE",
"FX c #FDFEFE",
"GX c #F9F7F9",
"HX c #EFEFF2",
"JX c #E5DAE2",
/* pixels */
"R R R R R R R I T T T T T T T T T T R R R R R T R R T I T T T T I T I U U R R U U R R R U U U U ",
"R R R R I A J R T T T T T T R T T T R R R R T T T R I I T T R T T I I J U U U U R H Z R U U U U ",
"U U R J  XfXOXJ T T I T I T T R R E E E E E R T E T T E E T R T T I I I I I J I J sX>XH R P R R ",
"R R I A  XDX;XM T I I I T T T T T J Z H H G G G G G C C b I E R T T J I I J J J A mXmXC I U R R ",
"T T ~ E .XDX:XZ E I I I I T T W W l # O O               o I  XW E T T T I I E ~ ~ mXbXR ~ R U R ",
"R I nXDXDXDXFXFXHX~ S T T Q M z z o N :X=X=X=X=X=X-X-X/ & : z g c J E T T A ;XDXDXDXDXFXDX.XH R ",
"T I =X:XaXDXgXaXaXE S J Z J x z b z +XDXDXDXDXDXDXDXDXwXD < < < h b J U T J .X>X:XVXHX>XaX XJ R ",
"T I A v ~ DX:Xx A I E k +   o =XDXSXFXGXNXuX`.`.).^.^.^.9XNXkXQ.% @ O J {.E S M v mXgXv A J U U ",
"T T T I  XaXOXZ E A x % L >X:XgXkXkXNXDXMXkXtXtXqXqXqXqXqX9X).D.Y.Y.0 n v m U E I >X;XJ T U U K ",
"I T T T I A Z I T v + & +XDXDXkX9XqXcXCXMXNXZXZXZXBXBXcXyX~.K.G.).(.u., % c H U U A Z U I U K K ",
"T R T T T E E W # + ( VXlX`.^.tXZXDX$Xp y y y y y e e t *.GXxX!.Z.Z.B.z.*.@ h b E T R U U U U R ",
"R T I T T E Z v & D 4XNXtX).uXeX4X4X5.3 9 0 $. . . .$.` } @X#XT.uX(.M.m.y.d : c ! R R U U U U U ",
"R R T T T [.v + n %XDX9X9X8XDXoX1 7 7 i 2.d.C.C.C.C.C.y.} 8 8 =.HXyXK.B.M.z.- l K I T R U U U U ",
"R R T T T  Xl   hXlX9X_.MXCXu 9 ` 2.z.G.B.G.^.!.J.K.H.A.V.l.e.r 7 @XDXF.M.m.q.d O I {.R U U U U ",
"R T T E E v ^ +XAXkX).kXwX7.q &.y.v.G.H.uXiX6.P.9XMX9.$.C.M.s.&.` 5.&X0X/.n.g.&.u b J R U U U U ",
"T T T E E   XXDXSXlX9XDX7.X  .c.H.^./.F.NXmXr q.0XDXa 8 V.M.C.M.%.` 9 mXuXN.q.u.a., g ! T R U U ",
"T T E [. Xo / DXGXZXNX( 9 _ P.J.^._.c.%.zXCXB ` 6XDXF 1 ' V.C.b.n.d.2.8 U.NXS.h.u., k  XR R U U ",
"T T W M c o XXDXSXNXxXs 0 t./.^.^.F.7XeXCXFXgXJXCXDXhX4X5X-.%.M.M.j.r.5 8.DXS.k.a.> h m U R R U ",
"T T ~ k o h oXDXSXMXkXu $.B.~.).^.g.iXDXFXGXZXNXBXmXDXDXDXp ` B.b.m.z.) I.xXS.k.a.u , & J R R R ",
"T T W l + hXGXGXDX,Xd o.x.`.).).^.a.iXFXDX4X7 a t B SXDXGXzX1X6 s.m.g.1.+.5.NX8Xp.2.0 $ K E R R ",
"T T W l O hXZXGXZX@XX 2.v._.`.).~.2.rXDXZX2X5  . .;.cXNXFX7XR.6 h.m.g.p.o.y SX0Xg.i. .$ K E R R ",
"R T [.l . wXxXSXxXU.2 q.v.9X_._.~.X.rXDXMX1X8 w.f.z.0XlXFXx.o.` h.k.p.u.o.y AX0Xf.u. .% K E R U ",
"E T W l O pXuXGXlXI.2 h.K.`.^.)./.b.0XDXDX3X) q.v.7XFXlX(.i 9 d.j.j.g.p.@.y AX0Xj.i. .% K E T U ",
"E T {.l O ].tXGXuXI.2 h.D.).^.^.L.C.8XFXFXzX6XrXyXcXDXeX0.7  .m.j.f.g.p.@.y AX0Xk.i.` + K E T U ",
"E T {.l + P.9XSXkXU.2 d.D.).!.^.L.M.8XDXZXFXDXDXDXGXDX$XX ) <.M.k.f.f.p.o.y SX0Xk.i.0 + P E T R ",
"T T {.c + c.9XSXMX$X1 d.D.).).J.M.n.8XDXMXeXU.U.U.#XtXiXhXjXE.` d.k.f.p.+.y SX0Xk.i.0 * K E T R ",
"T T ~ l o c.^.lXZX$X1 d.B.L.J.B.n.n.8XDXkXE.5 6 5 p Q.0XZXNX5X3 y.f.f.p.o.y SX0Xj.u.0 % P E R R ",
"T T ~ l o c.Z.J.MX$X1 d.m.M.n.n.n.n.8XDXtXE.3 &.q.q.,.T._.9XE.3 X.1.j.3...a SX0Xf.u.0 % K R R R ",
"E E ~ z o c.G.J.kXI.1 3.g.C.n.n.n.n.8XFXuXE.1 %.q.1.<.v._.).T.2 ..1.i.1.O.0 AXyXg.u.0 % K R U U ",
"E E ~ z o &.S.L.~.].2Xd &.M.b.n.b.(.cXFXtX0XdXjXvXvXvXiX!.!.T.X X.<.1.' R.wX7X].i.3.0 o K R U U ",
"E E E z & 0 e.G.M.'.DXN  .d.h.n.V.iXBXZX9XtXDXZXZXNXZXlX/.].9.4 @.<.,.6 &XDXz.i.u.| i : U R R R ",
"R E E C m @ f H.M.(.xXF 6 ] h.n.m.1.E.xXtXuXkXtXqX9X`.^.D.X 4 =.<.,._ ) 6XDXv.p.3.= h ~ R R R U ",
"E T T T J # d r.V.G.(.gX8.1 d.k.b.` } 5.mXHX7.F *XDX6.d d 6 _ 2.1.O.} 2XeX'.z.u.:.* h  XE R U U ",
"E E T R J # s X.z.M.B.MX&Xi e.d.h. .q 4 2X4X2 2 7.CXa 2 w ] >.i.1.@.6.GX0Xf.u.<.| * z {.E R U U ",
"E E R ! H # w 7 :.v.H.D.0XDX-  .p.m.e.} ] _ 3 r.@.} - 4 :.a.u.@.1 7.DXQ.B.B.>.] { * h ~ R R R U ",
"E E E E I I h * } &.t.m./.7X,X8.q u.q.y._ _  .w.<._ _ ..u.O.o.-.<XwX0XS.h.r.] r * b J R R R U R ",
"R E E E R {.l + t #.,.m.n.l.xX&Xa 4.t.V.&.` @.w.r.O.X.<.r.-.-.R.DX0Xf.j.q.[ | y @ C {.R R R U U ",
"R E E E R Q Q I o e } w.z.B.l./.tXDX#X1 ..X.[ [ ' ' ' ' ' HXxX!.F.N.l.1.>.{ * h {.T E R R R U U ",
"R R E T E E E Y v j * =.2.e.N.Z.G.(.7XdXeXeXrX3X3X3X3X1X3X0X(.M.m.g.2.] p = l M E E R U R R U R ",
"R R R T T A S Y }.x o p ] ..V.B.B.n.8XNXMXNXNXNXNXNXNXZXZXS.m.N.l.r.) { e O H {.Q Z Z U R R U U ",
"T R T I  XaX.XS Y Y |.% w i | @.a.B.N.m.N.N.N.N.D.D.N.N.N.l.f.u.=.} { * : }.Q Q I =X=XJ R R U R ",
"T R T I XXDX=XM Y Y |.x h ; e } &.e.w.i.l.m.m.m.l.j.f.i.q.1.2.:.t e - : v [.E Y S nXmXH T U U R ",
"R R I Z .XDX=XM I I Y [.k % o - { } ] #.2.r.q.1.1.1.1.:.| | | | j & O C ~ T I S A bXnXA H J R R ",
"U R hXVXVXDXCXmXnX XS I T E T c ; ; ; ; = w e e e w w w > > > > n b J I T Z .XVXmXSXGXmXVX+XZ R ",
"U T hXbXnXDXVXgXgX~ Z I Y E {.x # % $ $ $ % @ @ @ @ @ $ $ $ $ $ b I T T T Z .XnXgXGXGXbXnX.XH R ",
"R T I A  XDX;Xv J I U I T Q Q I I J H G C m m m m m m C G G G G I T U T T T I Z C nXmXM Z J R U ",
"R T E I  XVX=XZ T T R R R R T E E E E E E E E E E E E E E ! ! E R T R R I T T R J hXhXI R R R U ",
"U R R T E E E R T T R R U U U R R R R R U R T R R U R T R T T T U U U U U U R U U K R R U U R U "
};
