/* XPM */
static const char *empty[] = {
/* columns rows colors chars-per-pixel */
"48 48 97 2 ",
"   c #494E71",
".  c #494F71",
"X  c #4A4E71",
"o  c #4B4E71",
"O  c #4A4F71",
"+  c #4B4F71",
"@  c #4A4F72",
"#  c #4B4F72",
"$  c #4B4F73",
"%  c #4C4F71",
"&  c #4D4E72",
"*  c #4C4F72",
"=  c #4C4F73",
"-  c #465071",
";  c #475071",
":  c #475171",
">  c #475172",
",  c #465272",
"<  c #475272",
"1  c #475474",
"2  c #495170",
"3  c #485071",
"4  c #495071",
"5  c #4A5070",
"6  c #4B5070",
"7  c #4A5170",
"8  c #4B5170",
"9  c #4B5071",
"0  c #4A5171",
"q  c #4B5171",
"w  c #495271",
"e  c #485072",
"r  c #495072",
"t  c #485172",
"y  c #495172",
"u  c #485073",
"i  c #485173",
"p  c #495173",
"a  c #4A5072",
"s  c #4B5072",
"d  c #4A5172",
"f  c #4B5172",
"g  c #4A5073",
"h  c #4B5073",
"j  c #4A5173",
"k  c #4B5173",
"l  c #485272",
"z  c #485273",
"x  c #495273",
"c  c #485373",
"v  c #495373",
"b  c #4B5272",
"n  c #4A5372",
"m  c #4A5273",
"M  c #4A5373",
"N  c #4C5070",
"B  c #4C5370",
"V  c #4C5073",
"C  c #4C5173",
"Z  c #4C5272",
"A  c #4C5273",
"S  c #4C5373",
"D  c #4D5373",
"F  c #4B5473",
"G  c #4B5573",
"H  c #485074",
"J  c #495174",
"K  c #495175",
"L  c #4A5074",
"P  c #495274",
"I  c #495275",
"U  c #4A5274",
"Y  c #4B5274",
"T  c #4A5374",
"R  c #4B5374",
"E  c #495276",
"W  c #495376",
"Q  c #4A5276",
"!  c #4B5377",
"~  c #4C5174",
"^  c #4D5174",
"/  c #4C5274",
"(  c #4D5274",
")  c #4C5374",
"_  c #4C5375",
"`  c #4D5375",
"'  c #4B5475",
"]  c #4A5477",
"[  c #4C5475",
"{  c #4E5474",
"}  c #4C5674",
"|  c #4C5576",
" . c #4F5676",
".. c #4E5776",
"X. c #505676",
"o. c #505978",
"O. c #515A79",
/* pixels */
"O.X. .F n n n n n n n n n n n ; n n n n n n n n n n n n n n L n + + + + + + + + + + + + + + & ` ",
"O. . .F n n n n n n n n n n n ; n n n n n n n ; ; n n n n n n + + + + + + + + + + + + + + + + n ",
" . .D n n + + n ; n n ; ; ; ; ; ; ; n n n n ; ; ; ; ; ; n + + + + + + + + + + + + + + + + + + n ",
" .D D n n + + n ; n ; n n n ; ; ; n n n n n ; ; ; ; ; ; n n + + + + + + + + + + + + + + + + + n ",
"` D D n n + + n ; n ; n n n ; n ; ; n n n n n ; n n n ; n n n n + + + + n + & + n + + + + + + + ",
"D D D n n + + n n n n n n n n n ; ; n n n n ; n n n n ; n n n n n + + + n + + + n n + + + + n n ",
"D D D n n + + n n n L n n n ; n ; n n n n ; ; ; n n ; ; ; ; n n n + + n n + + n n n n + + n ` n ",
"D D n n n + + n n n n n n n n n ; ; n n n ; ; ; n n ; ; ; ; n n n n + n n + + n ; n n n n n n n ",
"D D n n + + + n n n n n n n n n ; n ; ; n n n n n n n n n n n n ; n + + + + + ; ; ; n n n n L ' ",
"D n n n n n n n n n n n n L L n ; ; ; ; n n n n n n ; ; n n n n ; n + + + + + ; ; ; n n n n ' ' ",
"D n + n ; ; ; ; n n n n n n L n n n n n n n n n n ; ; ; ; ; n n n + + n n ; ; ; ; ; n n n L ' ' ",
"D n + L n n n + + + + + n n L n + + + n n n n n ; ; ; ; ; n n n n + + n ; ; ; ; ; ; n n n L ' ' ",
"` n n n n n + + + + n n n L ` n + + + n n L n + n ; ; n + + ; n + + n ; ; ; ; ; ; ; n n L L ' ' ",
"` n ; n ; n + + + + + + n n L n + + + n n n n + n n ; + + + ; n n n + + ; ; ; ; ; ; n n n L ] ] ",
"` n n n n n n + n n n n n n ; n n n n + + + ; n + n ; + + n ; n n n + + ; ; ; ; n n n n n L L L ",
"D n n n n n ; ; ; ; ; ; n n ; ; n ; ; + & n ; n + + ; n + n ; n ; n & + ; ; ; ; n n n n n L L L ",
"n n ; ; ; n n n ; ; ; n n n n ; n n n n + n ; + & + ; + + + n n ; n + + ; ; ; n n n n n L L L ' ",
"n n ; n n n n n n n ; n n n L n n n n n + n ; + + + n + + + n n ; n + + n n n n n n n n n L L L ",
"n n n n n n L L L L n n n n L n ; ; n ; n n n n + + + n n n n n ; n + + + + + + n ; n n n n L L ",
"n n n n n n n n L L n n n n n n n n n n n + n n + + + n ; ; n n ; n + + + + n n ; n n n n n L L ",
"n n L n n n n n L L n n n n n L n n n L L n + n ; + + n n + ; ; n n n n + + n ; n ; n n n n L L ",
"L n n n n n n n L L n n L L n n n n n L L ` D n n + + + + + ; ; n ; ; n + + ; n n ; n n n n L L ",
"L L n n n n n n ' L n n n n n n n n n n n n n n + + n n n n ; ; n n ; n + + ; n n ; ; n n n ; . ",
"L n n n n n n n ' L n n n n n n n n n n n ; n n & + ; n n n n n n ; ; n + + ; n n ; n n n n ; H ",
"n n n n L n n n n n n L L n n n n n n n n L 1 n + n n n n n n n ; ; ; n n n n n n n ; ; n n n n ",
"n n n n L L n n n n n n n n n n n n n n n n n + + + n n n n ; n ; ; ; ; ; ; n n n n ; n n n n n ",
"n n n n n n n n n n L n n L n n n n n n n + + + + n n n n ; ; ; n n n n n n n n n n n + + n n n ",
"n n n n n n n n n n n n n n n n n L n n n n & n n n n n n ; ; ; n n n n n n n n ; n + + + + + L ",
"n n L n n L L L n n n n n L n n n L L L n L ` n n + + n ; n n n n n n n n n n n n n + + & + + L ",
"L L L n n n n n n n n ; n L n n n L L L n L n + n n + n ; n n n n ; n n n n n n n + + + & + + L ",
"n n n n n n n n n n n n n n n n n n n n n L ` n n n n ; ; n n n ; ; ; ; n n n n + + + + + + n ` ",
"L L n n n n n n n n n n n L n n n n n n n L n + n ; ; n n n n n ; ; ; ; n + + n + + + + + n n ` ",
"' L n n n n L n n n n n n L n n n n n n n L n n n ; ; ; n n n n n ; ; + + + + + + + + n ; n + + ",
"' L n n n n L n n n n n L L n n n n n n n L n + n n + n ; n n + + n ; + + n n + + + + n n n + + ",
"n n n n n n n n n n n n n n n n n n n n L n + n n + + + n n n + + + ; ; n ; ; n n n + + + + + + ",
"n n n n n n n n n n n n n n n n n n n n L n + n n + + + n n n + + + ; + n n ; n n + + + + + + + ",
"n n n n n n n n n n n n n n L L n n n n n n n n ; n n n ; n + n ; ; ; n + n n + + + + + + + + + ",
"n n n n n n n n n n n n n n L L n n n n n n n n n n n + n + & + ; n n n + n n + n n + + + + + n ",
"L L L L n n L L L n n n n n n n n L L L n n n n n n + + + + & + + + + + + n ; n n n + + + + + n ",
"L L L L n ' ' ' ' L L n n n L L n L L n n n n n n L L ` D n n + + + n n n ; ; ; n n + + + + + n ",
"L n n ' ' ' ' ' ' L n n n L ' L n n n n n n L L n n n n ` L L L + + n n n n n n n + + + + + + + ",
"L n n L ' ' ' ' ' L n n n L ' L n n n n n n n n n n ; n ` ` ` n + + ; n n n n n + + + + + + + + ",
"n L L ' ' ' ' ' ' L n n n L ' ' ' ' ' L L ` ` ` ` n n n + + + + n ; ; n + + + + + + + + + + + + ",
"n L L ' ' ' ' ' ' L n n n L ' ' ' ' ' ' ` ` ` ` ` L n + + + + + + n n + + + + + + + + + + + + + ",
"n n n n ' ' ' ' ' L n n n ' ' ' ' ' ' ' ` L ` ` D D ` D + + + + + + + + + + + + + + + + + + n n ",
"n n n L ' ' ' ' ' ' n n n ' ' ' ' ' ' ' ' L L ` n n + + + + + + + + + + + + + + + + & + + n n n ",
"n n n ' ' ' ' ' ' ' L n n L ' ' ' ' ' ' ' L L ` n n + + + + + D ` ` ` n + + + + n n + + n n n n ",
"n n n ' ' ' ' ' ' ' ' L n L ' ' ' ' ' ' ' L L ` n n + + + + + D ` ` ` L + + + + n n + n n n n n "
};
