/* XPM */
static const char *exit[] = {
/* columns rows colors chars-per-pixel */
"48 48 231 2 ",
"   c #14091C",
".  c #170D23",
"X  c #1A0D24",
"o  c #1C1325",
"O  c #1D142A",
"+  c #1F1A2C",
"@  c #171834",
"#  c #210F25",
"$  c #22162C",
"%  c #241B2E",
"&  c #291B2E",
"*  c #241628",
"=  c #311D2C",
"-  c #231730",
";  c #261D31",
":  c #291D32",
">  c #251F39",
",  c #2E1F3A",
"<  c #331F35",
"1  c #252134",
"2  c #2B2134",
"3  c #252238",
"4  c #2B243B",
"5  c #2C2B3E",
"6  c #27283E",
"7  c #332134",
"8  c #32243A",
"9  c #332D3E",
"0  c #3B283D",
"q  c #31303F",
"w  c #41202C",
"e  c #5B302E",
"r  c #442D3A",
"t  c #4E3037",
"y  c #583239",
"u  c #643839",
"i  c #2A2541",
"p  c #2E2B42",
"a  c #322C43",
"s  c #322A44",
"d  c #333246",
"f  c #3A3445",
"g  c #34334A",
"h  c #3B374C",
"j  c #36394C",
"k  c #3C3A4C",
"l  c #383845",
"z  c #373C53",
"x  c #3C3B53",
"c  c #3A3C5A",
"v  c #313754",
"b  c #2E3147",
"n  c #353D62",
"m  c #41394A",
"M  c #563B47",
"N  c #423E55",
"B  c #413B5C",
"V  c #432F43",
"C  c #6C3E49",
"Z  c #3E4155",
"A  c #3C445C",
"S  c #3E4762",
"D  c #3D526F",
"F  c #3D4C72",
"G  c #424355",
"H  c #43455B",
"J  c #44495E",
"K  c #4A4B5C",
"L  c #484757",
"P  c #514F56",
"I  c #574C52",
"U  c #755558",
"Y  c #624442",
"T  c #434B61",
"R  c #4C4F65",
"E  c #434C6A",
"W  c #4A4E6B",
"Q  c #4B4663",
"!  c #4A5365",
"~  c #4D556B",
"^  c #4C586D",
"/  c #47586D",
"(  c #535464",
")  c #555963",
"_  c #52546B",
"`  c #535A6D",
"'  c #5C5C6A",
"]  c #5C5B65",
"[  c #4B4F72",
"{  c #4C5471",
"}  c #4C5B79",
"|  c #4B5976",
" . c #535D73",
".. c #585D75",
"X. c #545979",
"o. c #5F606A",
"O. c #536373",
"+. c #5B6373",
"@. c #55617A",
"#. c #5A657B",
"$. c #5C697D",
"%. c #5D6876",
"&. c #62626C",
"*. c #6B686D",
"=. c #656771",
"-. c #646A75",
";. c #696D74",
":. c #636C7B",
">. c #656A7A",
",. c #6C727B",
"<. c #6A737B",
"1. c #73747A",
"2. c #737A7C",
"3. c #7A797A",
"4. c #804F42",
"5. c #8E664E",
"6. c #D6A76E",
"7. c #4E6180",
"8. c #546483",
"9. c #5C6C83",
"0. c #546881",
"q. c #5E7289",
"w. c #577090",
"e. c #626E83",
"r. c #6F6F80",
"t. c #657284",
"y. c #6A7585",
"u. c #6D7983",
"i. c #62768B",
"p. c #6B768A",
"a. c #6D7B8B",
"s. c #65788C",
"d. c #747C84",
"f. c #7B7D82",
"g. c #727D8B",
"h. c #767784",
"j. c #687992",
"k. c #747991",
"l. c #7E8185",
"z. c #74818D",
"x. c #7C838B",
"c. c #7F8C8E",
"v. c #778084",
"b. c #728394",
"n. c #7D8693",
"m. c #7D8994",
"M. c #7A8896",
"N. c #7489A8",
"B. c #838383",
"V. c #82858A",
"C. c #858C8E",
"Z. c #8B8B8C",
"A. c #888685",
"S. c #918E85",
"D. c #8D928F",
"F. c #94938E",
"G. c #99998F",
"H. c #98988E",
"J. c #858D94",
"K. c #898D92",
"L. c #849094",
"P. c #8B9493",
"I. c #8C9599",
"U. c #8D9A9C",
"Y. c #87939A",
"T. c #939593",
"R. c #949993",
"E. c #9A9C94",
"W. c #929B9C",
"Q. c #9B9E9B",
"!. c #9CA39D",
"~. c #9DA196",
"^. c #A3A49B",
"/. c #A6AA9C",
"(. c #AAAA9D",
"). c #A5A599",
"_. c #889AA3",
"`. c #8F96A4",
"'. c #96A1A2",
"]. c #9EA5A1",
"[. c #99A8AE",
"{. c #8EA0A8",
"}. c #A1A5A2",
"|. c #A5AAA3",
" X c #ABADA2",
".X c #A4ACAA",
"XX c #A7ABA9",
"oX c #B2AFA2",
"OX c #ABB0AB",
"+X c #AAB0A0",
"@X c #B3B3A4",
"#X c #B3B6AA",
"$X c #B6BBAB",
"%X c #BCBBAB",
"&X c #B9B7A5",
"*X c #A2AFB3",
"=X c #ACB5B1",
"-X c #ABBCBA",
";X c #BCBEB1",
":X c #B1BCBC",
">X c #B3BBB0",
",X c #D6B589",
"<X c #C1BFAB",
"1X c #BEC1A9",
"2X c #BCC0B7",
"3X c #C2C2AE",
"4X c #CCCEAE",
"5X c #C5C5B2",
"6X c #CBCBB4",
"7X c #CBCDBB",
"8X c #C5C8B9",
"9X c #CBD4BB",
"0X c #D1D2B4",
"qX c #D3D4BC",
"wX c #D9D8B9",
"eX c #D0CCB5",
"rX c #DDE0B9",
"tX c #E2E5BE",
"yX c #F0D992",
"uX c #C6CEC5",
"iX c #D5DBC9",
"pX c #D8D9C7",
"aX c #D9DFD0",
"sX c #CDD6CB",
"dX c #E3E3CA",
"fX c #E5E6C6",
"gX c #E0EDD0",
"hX c #EFF1DF",
"jX c #F1FADA",
"kX c #F5FFEF",
"lX c #E1EDE6",
/* pixels */
": : : : 1 : : 1 ; ; ; ; ; ; ; ; ; : : > : : : : : : : : : ; ; ; ; ; ; ; : : ; ; : : : : : : : ; ",
": : : : : : 1 ; ; ; ; ; ; ; ; ; ; : : ; % $ $ % % % ; ; > : ; ; ; ; ; ; : : ; ; : : : : 1 1 1 ; ",
"; : : : : 1 ; ; ; ; ; % % ; : 1 2 2 2 5 f m k h f f f 9 2 1 1 2 1 ; ; ; : : ; ; ; : : : : : : : ",
"; : : : : : ; ; ; ; ; ; ; ; $ $ % > d >.C.Q.Q.Q.Q.W.!.f.3 4 ; ; % % ; ; : : : ; ; ; : 1 : : : : ",
"; ; ; : : ; ; % % % ; ; % 3 ( ' *.B.F.~./.(.~.^.^.(.%X^.1.&.o.) ( L 2 ; : : ; ; ; ; ; : : : : : ",
"; ; ; ; ; ; % % % ; % + 4 h K.T.E.3XeX6X<X%XS.S.(.&X0X6X Xl.x.l.d.+.; $ : : : ; ; ; ; : : : ; : ",
"; ; ; ; ; % % % % $ N ..Q.;X6X6X6X X@XdXqXpX(.G.(.%X&XE.1.V.D.|.).T.f.1.2 ; : : ; ; ; ; ; ; ; ; ",
"; ; ; % % % % ; : O ` J.(.<X5X5X5XG.F.7X5X6X3X(.).@X#XE.3.^.@X&X#X X^.C.> - + > > ; ; : : ; ; : ",
"; ; ; % % % ; . 9 l.Z.Q. X(.E.R.T.B.B.^.(.&XfXqXQ.I.+.2.%XpXdX$X#X|.R.P.m.u.` 4 > ; ; : : : : : ",
"; ; % % % + O 3.K.Z.G.).3X3X).Z.1.|.#X(.^.~.H.R.P.x.x.P.$X<X<XoX@X(.^.!.'._.j.O ; > ; : : ; ; ; ",
"; ; % ; % l G 8XpX%XA.3.(.@X#X|.,..X=XT.J.x.u.u.a.y.'.T.^. X(.).Q.K.C.P.'.%X+X=.K ; ; ; : : : ; ",
"; ; ; ; X =.W.$X7XhX1.( F.G.3X3X].a.t.e.$.#.q.i.i.s.z.u.V.E.E.E.K.d.d.J.XX0X4XOX,.> ; % ; : ; ; ",
"; ; ; 3 b -.P.^.@X$XE.G.Q. X6X|.%.~ T x j g h j k x ~ ~ ` -.,.d.d.c.@X#XOX#X X|.1.H j 3 ; : ; ; ",
"; ; % 5  .u.P.~./.(.&X%XV.g.x.:.S j a a a 4 ; % : : g z K ( -.:.d.L.%X<X XR.B.].J.g.! d ; ; ; ; ",
"; ; $ d t.:.u.J.^.6X3X&Xg.~ / A a a a 8 2 : : : : : & : : 4 Z d J p.R./.$X^.D.Q.C.d.u.W O ; ; ; ",
"% > > Z m.+.` ~ x.0X(.R.t.z 3 d a p 4 2 : : : : ; : : % ; 2 d 4 z 0.x.E.8X#X).R.C.x.m. .% > ; ; ",
"% 3 9.L.6X1X1X/.,.,.h.+.3 > $ : : : : : : : : % % : : : : : : : 3 p W $.g.].6X&XT.v.].U.$.h $ ; ",
"; 3 q.W.wXwXrXtXB.` -.~ o $ : : : : : : : ; ; % % % : & & & : : : : x ~ p.!.fX0X^.d.].W.y.G ; ; ",
"- > g.I.}.T.S.^.l...h ; % ; % : : : ; ; ; ; ; % % % ; : : ; : : : : : : } i.U._.g.' f.B.f.' > ; ",
"g H z.m.J.V.A.E.f.x 4 O % ; : : : ; ; : ; ; ; ; ; ; ; : : : : : : : & % n F q.j.e.` l.Z.V.=.h > ",
":._.m.y.E >.l.P.*.  $ % % ; ; ; ; ; ; ; ; ; ; ; ; ; ; : : : : : : : : ; o 1 } #.e.<.|.^.E.D.z.3 ",
"` t..X|.d.,.;.x.&.o % % % % % % ; ; ; ; ; ; ; ; ; ; ; ; : : & & & : & : % 2 A  .U..X^.^.^.B.~ ; ",
"z S ;XqX|.W.L.;.L o % % % % % % ; ; ; ; ; ; ; ; ; ; ; ; % & & & : : : : ; 1 3 O.-X8X@X@X&X3.i % ",
"_ p.I.}.;XJ.:.l 2 % % % % % % ; ; ; ; ; ; ; ; ; ; ; ; ; : & & & : : : : : : 3 3 ) W.P.x.a.$.{ % ",
"+.M.a.P.>X-.5 o $ % % % % ; ; ; ; ; ; ; ; ; ; ; ; % ; ; : ; % % : : : : : ; ; . l m.z.$.} 7.} % ",
"! y.t.+.l d q k 2 $ % % % ; ; ; ; ; ; ; ; ; ; ; % % % % % % % % % : : : : : : $ p ` 1 5  .` ^ % ",
"J #.+.+.3.u.:.L 2 $ % % ; ; ; ; ; ; ; ; ; ; ; ; % % % % % % % % % & : & : : : $ d t.T Z #.#. .% ",
"j ! ^ 2.4X|.x.N 2 $ % % ; ; ; ; ; ; ; ; ; ; ; ; % % % % % % % % % & : : : : : * j _.[.%.+.+. .% ",
"j ! +.d./.aX7Xf : % % % ; ; ; ; ; ; ; ; ; ; ; ; % % % % % % % % % % : : : : 2 X ] sXqXT.~ `  .+ ",
"Z +.#.:.L.iX9X9 % % & ; ; ; : ; ; ; ; ; ; ; ; ; % % % % % % % % % % : : : : : . &.pXqX|.+.O.T $ ",
"H #.#.t.J.iX7X8 % % & : : : : : ; ; ; ; ; ; ; ; % % % % % % % % ; ; : : : : : X &.aXqX#X:.! b % ",
"J y.p.y.u.|.#X2 $ % % : : : : : ; ; ; ; ; ; ; ; ; % % % % % % % ; ; ; ; ; ; : . &.iX5X^.%.t.t.; ",
"! a.g.y.:.Y.W.: $ & < 8 : : : : ; ; ; ; ; ; ; ; ; % % % % % % % % ; ; < : ; ; . o.sX%XQ.$.a.y.; ",
"z ! .XOXt.uXR.o = t u u w : : : ; ; ; ; ; ; ; ; % % % % % % % % % : : C M 8 : X ' uX5X$Xt.^ z % ",
"H $..XXX.X'.:.O = y U 6.e : : : : ; ; ; ; ; ; ; % % % % % % % % ; - M ,XU V : o Z m.|.Q.t. .A $ ",
"~ N.| g.jX_.D $ & y 5.yXu = : : : : ; ; ; ; ; ; % % % % % % % % : $ Y ,XU M % $ 3 v K.C.9.0.| o ",
"j { 8.9.{.b./ O $ = y Y t 7 2 2 : : : : ; ; ; ; % % % % % % % % % : : < 0 : %   d t.|.Q.9.@.T * ",
"3 v 8.w.N.c 6 _ $ & 0 r r 7 : 1 : : : : ; ; ; ; % % % % % % ; % ; : : 8 8 % % l &.=X|.C.9. .G o ",
"3 p i p z 1.|.aX*.# : < 7 : : : : : : : : ; ; ; % % % ; ; : : ; ; : ; : & & $ uXiXOX) S b.J 5 o ",
"d H L h 3 }.dXdXA.& : : : 2 : : : : : : : : : ; ; ; ; ; ; : : : : : : : : : > ;X8Xu.+.#.g.! g o ",
"J $.*Xb.E }.5X%XB.$ * & : : 2 2 : : : : : : : : ; : : : : : : : : : : : : > @ .X.X<.sX*X#.9. .o ",
"H @.p.y.g.K.Z.V.|.F.V $ : : 2 2 : 2 2 : : : : : : : : : : : : : : : : : O ( *XJ.L.U.W.y.^ O.` o ",
"H @.E y.:Xx.r.r.$XgXP $ 1 : 2 : : 2 2 2 : : : : : : : : : : : : : : : 2 O ;.kXz.x.=X%.^ ~ O.@.$ ",
"p c X.#.p.+.` _ C.9X2.  & : : : : : : : : : : : ; : : : : : : : : : % 4 .X:X:X+.+.-.y.:.` ! G $ ",
"; s [ W W Q N W -.C.c.V.2 & : : : : : : : : : : : : : : : : : : : : : 4 :X-X`._ R Z t.#.! h 4 % ",
"; 4 n c c s 4 ..X.B n.lXm $ : : : : : : : : : : : : : : : : : : : : : g `.k..._ H g #.T p 4 : ; ",
": : i i 4 , : a a 4 a G 1 % ; ; : : : : : : : : : : : : : : : : : : : 4 N x a p 4 3 p 4 2 > ; ; ",
"; : ; ; ; ; ; % $ $ O o % % % % % : : : : : ; ; ; : : : : : : ; : : : % O O O O $ % $ % ; ; ; % "
};
