/* XPM */
static const char *player[] = {
/* columns rows colors chars-per-pixel */
"48 48 251 2 ",
"   c #0E001D",
".  c #03022B",
"X  c #0C052D",
"o  c #0B0425",
"O  c #13092C",
"+  c #17072B",
"@  c #0D0934",
"#  c #0D0837",
"$  c #140A33",
"%  c #1B0B33",
"&  c #140D3B",
"*  c #150634",
"=  c #1B153D",
"-  c #19153B",
";  c #0F1034",
":  c #280A2C",
">  c #350B2A",
",  c #2B0D35",
"<  c #260A35",
"1  c #350D33",
"2  c #261437",
"3  c #381735",
"4  c #311728",
"5  c #392639",
"6  c #352630",
"7  c #72321A",
"8  c #461C29",
"9  c #421537",
"0  c #561E37",
"q  c #4B243B",
"w  c #58263B",
"e  c #56302B",
"r  c #68252A",
"t  c #682738",
"y  c #7A2937",
"u  c #763238",
"i  c #703034",
"p  c #661827",
"a  c #6F4A2F",
"s  c #5B5220",
"d  c #110D43",
"f  c #151342",
"g  c #1B1542",
"h  c #1C1B43",
"j  c #18184B",
"k  c #171B53",
"l  c #0B124B",
"z  c #251B46",
"x  c #211C50",
"c  c #311343",
"v  c #1B2357",
"b  c #1F214C",
"n  c #24234B",
"m  c #292548",
"M  c #352547",
"N  c #2C2B52",
"B  c #252758",
"V  c #372A55",
"C  c #2C325E",
"Z  c #28325A",
"A  c #35355A",
"S  c #1C3772",
"D  c #242C65",
"F  c #293765",
"G  c #353B63",
"H  c #3B3E63",
"J  c #323866",
"K  c #263875",
"L  c #323C72",
"P  c #292B71",
"I  c #471C48",
"U  c #4F344D",
"Y  c #752942",
"T  c #69334E",
"R  c #3C4164",
"E  c #3D436B",
"W  c #2A457A",
"Q  c #394776",
"!  c #3E507F",
"~  c #55484F",
"^  c #724746",
"/  c #724F4F",
"(  c #414465",
")  c #43456D",
"_  c #454A6E",
"`  c #494E6F",
"'  c #4C506F",
"]  c #454D72",
"[  c #4A4F71",
"{  c #434975",
"}  c #475072",
"|  c #4B5172",
" . c #4C557A",
".. c #4E597C",
"X. c #46537B",
"o. c #515675",
"O. c #515876",
"+. c #535A7C",
"@. c #525678",
"#. c #777070",
"$. c #5B6679",
"%. c #922C10",
"&. c #A7330A",
"*. c #A93015",
"=. c #B53909",
"-. c #901F33",
";. c #81393B",
":. c #862E2B",
">. c #AD3132",
",. c #CB3F33",
"<. c #8F4E17",
"1. c #AF4D0F",
"2. c #917111",
"3. c #B06F13",
"4. c #914D36",
"5. c #AA5C39",
"6. c #B56C32",
"7. c #C85908",
"8. c #CB510F",
"9. c #CE6707",
"0. c #D27906",
"q. c #D16B0F",
"w. c #CE4A38",
"e. c #CA7433",
"r. c #E4593F",
"t. c #913A43",
"y. c #BD3A40",
"u. c #8E4B4D",
"i. c #B14C48",
"p. c #93624D",
"a. c #B0734C",
"s. c #985469",
"d. c #9A4E63",
"f. c #8F6C6E",
"g. c #B97462",
"h. c #DB5846",
"j. c #C54D46",
"k. c #E25C46",
"l. c #C96654",
"z. c #DB6859",
"x. c #C17640",
"c. c #F57657",
"v. c #EB6E51",
"b. c #E57E60",
"n. c #C47F6C",
"m. c #9E8925",
"M. c #DC950A",
"N. c #D28A10",
"B. c #E59611",
"V. c #E8A706",
"C. c #F1A406",
"Z. c #E9B315",
"A. c #F3B512",
"S. c #F0B110",
"D. c #D88D33",
"F. c #EE903B",
"G. c #EAB43E",
"H. c #F6C614",
"J. c #FCEF10",
"K. c #F4D82C",
"L. c #FDE423",
"P. c #F8F138",
"I. c #A0857F",
"U. c #BC9A56",
"Y. c #D28852",
"T. c #E8825A",
"R. c #E09F55",
"E. c #DEA048",
"W. c #F2AF4F",
"Q. c #F3966B",
"!. c #F08E67",
"~. c #CAA86E",
"^. c #FBAA78",
"/. c #E9B26C",
"(. c #CE977C",
"). c #F2DC4E",
"_. c #FFFA52",
"`. c #FDEB49",
"'. c #FCEF6C",
"]. c #2C4987",
"[. c #334B87",
"{. c #35568A",
"}. c #335895",
"|. c #285786",
" X c #3767A7",
".X c #3E79B1",
"XX c #3D75AA",
"oX c #2B5795",
"OX c #4C5983",
"+X c #455887",
"@X c #505E90",
"#X c #566387",
"$X c #45679A",
"%X c #546591",
"&X c #56749B",
"*X c #43638D",
"=X c #616581",
"-X c #4775A9",
";X c #4D77AC",
":X c #6377AD",
">X c #7A8B9A",
",X c #4981AF",
"<X c #4884B7",
"1X c #5588B8",
"2X c #5984AD",
"3X c #7998BB",
"4X c #6C8AB4",
"5X c #71A4B9",
"6X c #4994C9",
"7X c #749BC3",
"8X c #7AABCC",
"9X c #8B9AB5",
"0X c #92ACB8",
"qX c #ABAFA0",
"wX c #FCB488",
"eX c #E7BA90",
"rX c #E8B791",
"tX c #C9BB9F",
"yX c #D7D692",
"uX c #FFC389",
"iX c #F7CD8B",
"pX c #FCC897",
"aX c #FFD19D",
"sX c #E9C791",
"dX c #FBF694",
"fX c #FDD8A6",
"gX c #F9CBA0",
"hX c #FDEAA6",
"jX c #FEF2B3",
"kX c #8CBCD6",
"lX c #8EB1C9",
"zX c #A2B9CE",
"xX c #91C7D5",
"cX c #AEC9D6",
"vX c #99CBE1",
"bX c #AFD6E8",
"nX c #8BF0F9",
"mX c #B4EFF3",
"MX c #D6D5DC",
"NX c #FCFFC7",
"BX c #FCFCD9",
"VX c #F0EDD4",
"CX c #D5DAE3",
"ZX c #CBF7E9",
"AX c #D4F5FA",
"SX c #D0EEEE",
"DX c #F9F7E6",
"FX c #E7FCFC",
"GX c #FDFEFD",
"HX c #F7FEF7",
"JX c #E5EDEE",
/* pixels */
"| | | | | | | ` ` ` ` ' | | | | | | | | | | | | | | | | ' | | | | | | | | ' | | | | | | | ' ' ' ",
"| | | | | | | | | ' ' | | | | | | | | | | | | | | | | | | | | | | | | | | | | | | | | | | ' | | ",
"| | | | | | | | | | | | | | | | | | | | | | | | | | | | | | | | | | | | | | | | | | | | | | | | ",
"| | | | | | | | | | ' | | | | | | | | ' | | | | | | | | | | | | | | | | | | | | | | | | | | | | ",
"| | | | ' | | | | | | | | | | [ | | | | | | | | | | | | | | | | | | | | | | | | | | | | | | | | ",
"| | | | ' ' | | | | | | | | | | | [ [ | | | | [ | | | | | | | | | | | | | [ | | | | | | | | | | ",
"| | | | | | | | | | | | o.O.O.O.O.O.o.| | | | [ | ' | | | | | | | | | ' [ [ | | | | ' ' | | | | ",
"| | | | | | | | | [ O.| h d d d d d # H +.| | [ | ' [ | | | | | | | | [ [ [ | | [ ' | | | | | ' ",
"| | | | | | | | | +.E j X 2.2.2.2.m.<.q B ..+.| | [ [ [ | | | | | | | [ [ | [ [ [ ' | | | | | | ",
"| | | | | | | | +.J 5 a #.'.'.'.`.C.8.p 1 B A ..| | | [ [ [ ` ` ` ` | [ [ [ [ [ [ [ | | | | | | ",
"| | | | | | | | { m 2.`.DXHXGXDXsX=.1.7.<.8 < G  . .} ] ] ] ] ` ] | | | [ [ [ | [ [ | [ [ [ | | ",
"| | | | | [ | | d m._.VXDXDXNX/.=.1.K.L.A.0.t + ) ] B n z n n n n G _  .| | | | | | ' [ [ | | | ",
"| | | | [ | | ; ~./ M U m yXW.8.q.VXDXHXiX0.1.:.2 f & # & f f & # . = ..= = m | | ` | [ [ | | | ",
"| | | | | _ N 3 qX0X1X&X%Xm 2.W.VXHXGXhXH.M.1.1.r * =XMXMXMXCXMXMXzX+X+ 6.3.> h | | [ | [ | | | ",
"| | | | | E 2 4.>XvXSXSXxXQ 6 f.GXBXdXL.V.9.9.7.*.: ..SXSXAXAXAXFXSX7X- 7 6.3.8 M ( | ` | | [ [ ",
"| | | | O.E < 6.5XbXGXHXnX4Xl s _.P.L.V.9.0.H.9.*.> j *X-X,X2X5XlXvXbX9X#.a <.r   A O.` | | | [ ",
"| | | |  .E < 5.xXAXFXnXAX4Xj s J.P.B.7.M.J.S.9.*.> @ - O O X O P lXFXGXJX_ # = X A [ | | | | [ ",
"| | | +.N X 8 6.) xXmXnXmXQ + <.A.Z.9.V.J.B.q.7.=.> . 2 _ { ] OX& &XSXJXHXcX4X@Xx @ V #X| | | | ",
"| | O.j #.yXtXZ.a { $X*X{.q %.9.A.Z.Z.Z.0.1.&.&.%.1.e g |  ...+XB f Z :XmXlX3XcXbX` o N | | | | ",
"| | +.@ ~ yXjX`.U.^ e 8 4 <.D.G.).).L.B.8.1.1.1.&.8.7 f [ |  .%Xl 8 i J &X:X4XcXHXzXF O | | | | ",
"| | | H @ e '.DXBX'.K.B.B.Z.dXBXjXdXH.C.V.V.M.N.1.%.8 n |  .X.C 5 4.e.0 M = H bXJXFX9Xf N | | | ",
"| | | @.H M 5 ~ u.e.A.A.C.S.D.e.e.U 6 4 , 2 < % % X N +. .OXOX. 4.e.6.t : N E R kXFXCX$XX A ` | ",
"| | | [ | { A & -.y 7 q.q.q.8.:.8 y y 0 j c >.l.i.1 Z #XX.X.H 5 6.e.u , o X.! X %XcXAXxXB * H | ",
"| | | | [ ..| $ l.T : i.z.z.z.^ X c.c.j.T Y w.T.k.9 B ..X.L o a.F.4.1 O m _ ..]   &XbXSX3Xg H O.",
"| | | | | | _ * eXf.U aXgXgXhXI.% rXpX!.r.r.w.^.k.9 Z ..Q C 3 Y.a.t < - +.| ..| - # >XSX3Xg H O.",
"| | | | | ..{ $ (.gXsXaXhXhXfXpXrXpXuXQ.c.c.c.z.0 G OXOXC 6 E.D.4.: = `  . . . ...X  .vXlX= H O.",
"| | | | | @._ * i.wXjXeXu.:.(.fXfXaXQ.c.i.3 3 I ) X.%XB 5 p.D.4.w + = +.| | |  ...J n G @XX ( O.",
"| | | | | | | @X9 d.wXiX(.g.eXaXwX^.v.t., . . J OXOXA h / R.6.t : m ( | | | | | | OXA & j A [ | ",
"| | | | | ..+.J S I Y g.^.wXwXQ.l.u.y , v ! Q - ) %X; U Y.Y.4.3 + A #X| | | | | | | [ H N | | | ",
"| | | | +.| A G 2X[.l : w.>.>.>.-.$ X B 2XxXlXG n G M 5.Y.4.w + n )  .| | | | } | | } | ..| | | ",
"| | | +.] n ; vX8X;XS 2 f.u.T T d.n g ! xXZXbX4XZ . a x.5.t 3 % R ..| | | | | | | | | | | | [ | ",
"| | | [ A h ( ZX5X-X[.C ZXZXcXzX0X[.j Q xXmXxX8X7XJ n ^ u 3 $ o... .| } | | | | } | | | | [ [ | ",
"| | +.$ $.SXSXZX&X}.}.v h f & & j $Xv Q 5XxXZXJXJXlXL , 9 1 $ | +.| | | } | } | } } | | [ [ [ [ ",
"| | @.z - +XvX8XF K ;X1XXX.X.XXXXX2XB B $X7XmXkX7X:X+XB % 2 +.| | | | | | | | | } } } | | [ [ | ",
"| | @.h w i.f.L # W <X1X1X}.]. X6XQ L B j C +Xs.d.s.U f & N +.| | | | | | | } } } } } } | [ | } ",
"| | +.= u.^.Y.y < S  X-X;X].K }..Xj D L l + u.T.!.T.i.1 g _ | | | | | | } | | | | } | | | | } } ",
"[ [ @.z f.hXiXh.3 k ].}.$X-X-XXX}.k x v z ^ uXaXaXpXb.p h | | | | | | | | | | | | | | | | | } } ",
"[ [ | z p.uX/.h.9 k K D K [.[.W D k x # t b.sXpXpXaX!.p h +.| | | } | | } } } | | [ | | | [ } | ",
"[ [ | V t.v.h.h.1 ]. XD D ].[.W K K P k T j.i.!.^.!.k.Y n +.| | | | | | | | } | | | [ | | [ [ | ",
"| | | _ T >.h.y.: |.6X,XW h B ]. X;X;X[.f 3 j.h.h.k.y m +.|  .| | | | | | | | | | | | } } | | | ",
"| | | | V , 1 < O W  XW B & $ b [.;X{.K v = , 1 1 1 V | | | | | | | | | | | | | | [ | | } | | } ",
"| | | | E G A G % ! 1X-X[.C g & h <X<X<X$XF h # m N R O.| | | | | | | | | | | | | [ | } | | } } ",
"| | | | | +.+.) # v W W Z b g h h W W W K k - $ ( O.o.| | | | | | | | | | | | | | | | } } } } | ",
"| | | | | | _ g e i 8 1 : , & z = 3 e e 8 3 2 $ A ' | | | |  .| | | | | | | | | | | } | | | | [ ",
"| | | | | _ z M D.F.i.u t I z n O u.Y.F.5.;.T % V | | | | |  . .| | | | | | | | | | | | | | | | ",
"| | | | | [ A f t y t T q *  .@.o c u ;.u i w % A | | | | |  . .| | | | | | | | | | | | | | | | ",
"| | | | | | _ g $ % % % * * _ +.A $ % % % % % O ( +. . .| | | | | |  . .| | | | | | | | [ | } | ",
"| | | | | | | R H H H R R ( | | ` H H H H R R R | | | | | | | | | |  . .| | | | | | | | | | | [ "
};
