/* XPM */
static const char *wall[] = {
/* columns rows colors chars-per-pixel */
"48 48 217 2 ",
"   c #0E062E",
".  c #13072E",
"X  c #120A2E",
"o  c #1C0F2F",
"O  c #0E0531",
"+  c #0E0931",
"@  c #120732",
"#  c #140C33",
"$  c #190D35",
"%  c #150C39",
"&  c #190D39",
"*  c #120539",
"=  c #171036",
"-  c #191136",
";  c #16123A",
":  c #1B143C",
">  c #1E1B3E",
",  c #21163D",
"<  c #221B3E",
"1  c #25203D",
"2  c #1B1542",
"3  c #1D1B41",
"4  c #1E1549",
"5  c #221742",
"6  c #251C43",
"7  c #291D45",
"8  c #241C4A",
"9  c #2A1F4B",
"0  c #21174F",
"q  c #271E52",
"w  c #262145",
"e  c #2B2146",
"r  c #24234A",
"t  c #2C234B",
"y  c #2E294D",
"u  c #31264C",
"i  c #332A4E",
"p  c #312847",
"a  c #2E2553",
"s  c #2E2A57",
"d  c #322651",
"f  c #332B54",
"g  c #392E54",
"h  c #342C5C",
"j  c #392D5B",
"k  c #302558",
"l  c #353155",
"z  c #3A3255",
"x  c #35335B",
"c  c #3C335B",
"v  c #3C395B",
"b  c #37385E",
"n  c #2F3258",
"m  c #3B3563",
"M  c #3E3B63",
"N  c #3F3C6A",
"B  c #333260",
"V  c #342960",
"C  c #433B5D",
"Z  c #42375D",
"A  c #443D64",
"S  c #453D68",
"D  c #3D4269",
"F  c #494358",
"G  c #454164",
"H  c #4A4465",
"J  c #45426A",
"K  c #4B446B",
"L  c #4D496C",
"P  c #444A6F",
"I  c #524C6E",
"U  c #50476F",
"Y  c #55506D",
"T  c #4D4671",
"R  c #464D72",
"E  c #4D4C73",
"W  c #4A4977",
"Q  c #534D73",
"!  c #524E7B",
"~  c #594F76",
"^  c #4C5375",
"/  c #4D547A",
"(  c #4F597C",
")  c #555275",
"_  c #5A5576",
"`  c #535876",
"'  c #5E5B74",
"]  c #53547A",
"[  c #5B557A",
"{  c #535A7C",
"}  c #5D5A7C",
"|  c #605B76",
" . c #625D7D",
".. c #625577",
"X. c #64617C",
"o. c #69637E",
"O. c #6A6A78",
"+. c #5C5482",
"@. c #535D82",
"#. c #5C5C82",
"$. c #5C5E8A",
"%. c #545888",
"&. c #4F5880",
"*. c #625D83",
"=. c #625886",
"-. c #566183",
";. c #5C6486",
":. c #5C638A",
">. c #5B658A",
",. c #5E6699",
"<. c #646383",
"1. c #6A6583",
"2. c #6D6A85",
"3. c #63658B",
"4. c #68648B",
"5. c #66698C",
"6. c #6B6A8C",
"7. c #726D84",
"8. c #726E8B",
"9. c #75738B",
"0. c #78748B",
"q. c #7C7A8E",
"w. c #777887",
"e. c #656993",
"r. c #6B6B91",
"t. c #676794",
"y. c #6F7192",
"u. c #737493",
"i. c #797592",
"p. c #777992",
"a. c #7B7B93",
"s. c #74769B",
"d. c #7C7D9B",
"f. c #767999",
"g. c #7275A4",
"h. c #817E93",
"j. c #817E9A",
"k. c #7E8095",
"l. c #7D819C",
"z. c #7C82A3",
"x. c #85858E",
"c. c #848295",
"v. c #898394",
"b. c #84829A",
"n. c #89859A",
"m. c #8B8A9C",
"M. c #898A99",
"N. c #928D9C",
"B. c #93929D",
"V. c #8186A2",
"C. c #858AA3",
"Z. c #8B8DA3",
"A. c #878BA9",
"S. c #918DA2",
"D. c #8D91A6",
"F. c #9393A4",
"G. c #9A9BA5",
"H. c #9496A9",
"J. c #9D9DA9",
"K. c #9798A8",
"L. c #979CB2",
"P. c #8F96B4",
"I. c #A19CA7",
"U. c #9FA3AC",
"Y. c #9EA3B1",
"T. c #A3A3AC",
"R. c #A4A8AE",
"E. c #AAABAC",
"W. c #A6A3AB",
"Q. c #ADB1AB",
"!. c #B5B2AE",
"~. c #B8B5AF",
"^. c #A4A5B1",
"/. c #A5AAB3",
"(. c #ACACB2",
"). c #AAAFBB",
"_. c #A6ACB9",
"`. c #B3AFB4",
"'. c #AFB3B2",
"]. c #ADB5BA",
"[. c #B4B5B4",
"{. c #B8B7B5",
"}. c #BAB9B6",
"|. c #B3B5BA",
" X c #B6BAB9",
".X c #BBBBBA",
"XX c #B3B9B5",
"oX c #B1AEA9",
"OX c #C1BEB9",
"+X c #BEC2BB",
"@X c #BFC2B7",
"#X c #C5C3B4",
"$X c #C4C4BC",
"%X c #CBCCBB",
"&X c #C7C7BA",
"*X c #D1CCBF",
"=X c #CED0BC",
"-X c #D1D1BE",
";X c #B7B9C0",
":X c #BABDC3",
">X c #BFC2C2",
",X c #C4C6C2",
"<X c #CBCCC3",
"1X c #CBCCCA",
"2X c #C6C9C6",
"3X c #D1CFC5",
"4X c #CED2C6",
"5X c #CED3C9",
"6X c #D3D3C4",
"7X c #D3D4C9",
"8X c #DADCCB",
"9X c #D7D9C8",
"0X c #DCDDD0",
"qX c #D2D9D2",
"wX c #DFE1CA",
"eX c #E0E1D0",
"rX c #E2E5CE",
/* pixels */
"/ / / / { x : 3 3 > > > > > > > > 3 3 > > > > > > > > > < < > > < < < < < > > > : : & y @.( ( / ",
"/ / / / ( l   X X   X X X # # X # # # # # # # # X X X X @ +     . # X @ # # # $ & : & y -.{ ( / ",
"{ @.@.@.-.b + # = ; % # @ @ # % : : ; ; ; ; = = ; ; : > 5 6 8 8 > % $ $ % % % # % : & y >.-.-.{ ",
"x x x x n r r 3 ' ;X/./.R.R.T.R.m.;.5.<.<.<.<.1.2.2.9.p.p.a.q.c.} k h 6.k.k.B.G.n.: # 6 R P D / ",
"+ @ # % # ; s 3 O.qX4X6X6X6X=X6XR.p.a.k.a.a.p.p.p.p.a.a.a.a.q.h.I k V d.G.J.{.$XE.5 % $ % * 2 ^ ",
"; % % O O @ g y O.1X,X5X5X4X<X4XU.9.a.a.p.p.9.9.9.9.p.a.a.a.a.q.1._ K b.H.K..X$X(.: . & & & 2 / ",
"; @ > ' Y | .X<X2X+X[.w.9.w.c.c.c.b.c.b.j.d.b.c.c.b.a.i.p.n.c.h.0.0.a.6.*.1.o.o.' f c g % # 2 ^ ",
"; O 1  XXX X0XwX8X+X(.E J K E K 9.S.m.n.n.M.:X$X$X.X^.I.G.B.v.h.0.7.9.} T U g 9 d K ) A @ # 2 ^ ",
"; O < E.'.[.8XrX8X%X|.` E ) Q L i.S.m.M.n.M.$X<X<X.X[..X.XW.c.h.0.7.9._ E Q Z g c L I A % # : ^ ",
": O > E.(.E.E.Q.!.E.U.) E _ 9.7.M.G.F.N.n.M..X+X.X(.`.{.[.W.c.h.0.7.8.) K K A Z C H I A % # : ^ ",
": @ : M.F.F._ K K I [ ] E 2.1X<X$X X.XT.y.u.<.<.} *.6.8.9.c.c.b.8.}  .L A A [ =._ y i 6 % # > ^ ",
": @ ; c.F.Z. .Q ! Q Q Q J 2.<X&X$X.X+XU.r.r.} #.#.#.*.*.<.a.c.n.2.Q [ K v A } } ) t t e % % > ^ ",
": # % q.N.M.' ) #.} <.0.2.v.<X#X@X|.].H.f.s.} #.#.<.1.1.2.j.c.n.2.) } _ _ ' } [ ) y f t % $ > ^ ",
": # % 7.a.9.} ] y.V.U.7X7X6X#X%XR.V.V.C.L.A.] ] E D./.^./.8.) [ #.<.2.;X2X1X1.Q _ i f t = $ > ^ ",
": O # X.8.4.} [ p.A./.8X9X6X=X=XU.g.z.C.P.A./ W L J.;X[. X6.N S [ 6.6.>X<X7X7.[ [ f f t % $ , ^ ",
": + % } X. .<.<.u.u.M.[.'.[.XXXX/.L.U./.).Y.<.#.} F.^.U.^.6.W ] 6.a.a.;X,X2X .T L g f t = # , ^ ",
": @ % H H I z.V.r.! %.$.;.;.3.#./.qX6X6X=X$XC.d.d.{ ] ] / 3.l.k.K.R./.l.e.e.h f h g l y = # , ^ ",
": @ % G H I A.D.y.%.%.$.3.t.t.,._.9X6X6X=X$Xb.f.d.! W ! W <.C.l.H././.l.,.,.s f f g l f = $ , ^ ",
": + % H H I d.d.r.#.r.H.H.Z.r.3.H.}.[.[.|.(.K.H.K.n.q.0.0.9.<.#.l.).(.y.%.%.s f f l x f = $ , ^ ",
":   = H L L H c [ #.m.0X8X+X5.e.r.u.s.r.$.5.{..X.X.X.X[.[.W.z 8 } |.].<.h m a f f l l f = $ , ^ ",
":   : I I I A c +.$.m.7X6X{.3.e.r.s.g.s.#.6.|..X{.[.[.!.!.(.K a X.:X:X6.h m t t y l c f $ $ , ^ ",
":   : [ } } 1.o.4.$.m.7X6X{.<.e.3.#.#.y.V.Z..X{.{.[.{.E.F.m.K h I b.a.) S K A A A y y t $ $ 6 ^ ",
":   > <.*.2.S.S.i.3.m.6X6X{.#.5.[ v l 2._.R.{.{.{.[.[.m.4.6.J m f 8 5 A Q I Q ~ L t t 6 ; $ 6 ^ ",
": O 3 *. .7.n.v.i.5.F.0XeX(.} 3.) G v 8./.R..XOX.X.X.XB.6.u.J m j a t S Q Q Q Q L t t t ; $ 5 ^ ",
": O > J.W.E.oX!.n.4.5.' X.` E ^ ) ) L 6.Z.Z.H.H.H.F.m.a.6.6.J b c t t c v c f f f t t t : $ 6 ^ ",
"> O > }.%X#X#X%XN.4.#.B h S E E E ) ) 3.y.6.3.3.;.<.;.;.;.3.T m c f f t w 7 6 : 5 t f t : $ 6 ^ ",
"3 O : !.&X#X#X*XN.*.*.S M J E E } 0.q.p.6.6.r.r.5.3.3.3.3.5.E b b g g t t t 7 6 6 t u t : $ 6 ^ ",
"8 @ : !.#X#X#X*Xn.! ` J A J J M c.<X<XN.5.r.r.e.5.3.3.3.3.5.E m b f g t e e 7 6 6 6 6 , : & 6 / ",
"w @ > {.6X*X-X8Xv.T Q J J A G x x.<X7XB.5.r.6.5.5.3.3.3.5.6.] M x f f t e e 7 7 6 < 6 6 : & 6 / ",
"w @ ; I ' O.w.x. .T ! ] ) } X.} 2.9.0.} ! ) f.V.d.d.l.u.) ] M f d t u t e e 6 : , < 6 6 : & w / ",
"r @ % 4 0 q m A T Q [ r.r.b.F.G.} 8 a m K K d.Z.Z.C.C.p.A S f t u p p p t t : & , 6 6 6 : & 9 ` ",
"r @ % t k h K T Q E ] 6.6.b.G.J.<.h m A L E C.H.F.H.H.d.A T j d d u u u p t : # : 6 6 6 : $ 9 / ",
"r @ # z A A A C I p.m./.).T.0.b.} m m J E E <.6.4.} } I f d t t t p p i i f A A A v v f : & 9 ] ",
"r @ # z K K A v _ Z.U.2XqX'.Q [ L N A J E E L K K g u d 7 7 7 7 7 t p g f c _ } [ K K v : & 9 ] ",
"r O # v A A A c ' F.K.2XqX/.) [ K M M J E Q Q Q Q v c c 9 7 7 7 t t p i i c _ } ~ H H c $ & 9 ] ",
"r   # v.B.N.N.N.N.H A Q _ Y ] [ #.#.#.[ ) ) L A A f u y g c c f 7 6 C ^.T.W.2.=.[ A Z f & # 7 ] ",
"r O @ I.&XOX~.~.`.g a d d A [ [ <.6.r.3.[ [ A t u 7 , 6 v A A c 6 ; F 1X<X,X1.+.[ j c u $ # w { ",
"r O X I.,XOX!.!.`.C f c c K } *.<.6.r.6.} } A u f t 7 t c A A v 6 : C <X<X.X_ =.[ j j t % # 6 { ",
"r O X ' 2.o.| | | f t t 6 u A A 1.n.C.1.g M f t t t t p i f g f 7 , l n.N.j.a h h f f 6 # @ 6 { ",
"r   % A L H H J J f t 7 o , j k o.N.N...2 7 6 t t t u u t t t t e 6 f +.=.+.0 5 8 a f 6 # . , ` ",
"r . % K _ ) L L L l t 9 = < c j 1.F.K...6 t t t t t u u u p p u t t z 4.r.=.q 9 a h x r # # , ` ",
"r @ % t t e t u u g x x x t 6 6 u c C g 9 t e 7 e 6 6 7 e e e p i f g g f f 9 9 9 8 7 2 & # < { ",
"r @ % @ X X : < , x J N J h 3 6 , : : 6 t t t 7 9 6 6 6 e e e p l c g $ $ , t u 6 # % & # . - ] ",
"r + ; : ; $ , 6 , f b x c t : , , , , 6 6 7 7 6 6 6 6 e e e e t i l i , , , e t 6 * % : 6 : < ` ",
"R R / P ; & % # # % # # # # % $ % % % % % % # # # # % % % % % % % % % % # # # # # % O t ;.{ ` { ",
"{ { -.R ; & # # # # # @ % # % % # # # # # # # @ @ @ @ @ @ @ @ # @ @ @ @ @ @ @ @ @ * O t ;.{ } { ",
"{ { @.R 2 2 : : : : : : 2 2 2 2 2 2 2 : ; ; ; ; ; : : : : : : : : : : : : : ; % % %   t ;.{ { { ",
"{ { @.( ^ / / ( @.@.:.>.>.>.:.%.%.@.@.@.@.&.( { { { { { @.@.@.@.-.-.-.>.>.>.>.-.@.] R / -.@.{ { "
};
